<?xml version="1.0" encoding="UTF-8" standalone="no"?>
<svg
   xmlns:dc="http://purl.org/dc/elements/1.1/"
   xmlns:cc="http://creativecommons.org/ns#"
   xmlns:rdf="http://www.w3.org/1999/02/22-rdf-syntax-ns#"
   xmlns:svg="http://www.w3.org/2000/svg"
   xmlns="http://www.w3.org/2000/svg"
   version="1.1"
   id="svg2"
   viewBox="0 0 169.27734 169.27734"
   width="47.773827mm"
   height="47.773827mm">
  <defs
     id="defs8" />
  <metadata
     id="metadata4">
    <rdf:RDF>
      <cc:Work
         rdf:about="">
        <dc:format>image/svg+xml</dc:format>
        <dc:type
           rdf:resource="http://purl.org/dc/dcmitype/StillImage" />
        <dc:title></dc:title>
      </cc:Work>
    </rdf:RDF>
  </metadata>
  <g
     style="display:none"
     id="layer1">
    <g
       style="display:inline"
       id="layer5">
      <path
         style="display:inline;fill:none;fill-rule:evenodd;stroke:#000000;stroke-width:25;stroke-linecap:butt;stroke-linejoin:miter;stroke-miterlimit:4;stroke-dasharray:none;stroke-opacity:1"
         d="m 35.416599,49.67663 0,119.60071"
         id="path3218" />
    </g>
    <g
       style="display:none"
       id="layer6">
      <path
         id="path3221-3"
         d="m 84.638669,49.67663 0,119.60071"
         style="display:inline;fill:none;fill-rule:evenodd;stroke:#000000;stroke-width:25;stroke-linecap:butt;stroke-linejoin:miter;stroke-miterlimit:4;stroke-dasharray:none;stroke-opacity:1" />
    </g>
    <g
       style="display:inline"
       id="layer7">
      <path
         id="path3220"
         d="m 133.86074,49.67663 0,119.60071"
         style="display:inline;fill:none;fill-rule:evenodd;stroke:#000000;stroke-width:25;stroke-linecap:butt;stroke-linejoin:miter;stroke-miterlimit:4;stroke-dasharray:none;stroke-opacity:1" />
    </g>
    <g
       style="display:none"
       id="layer4">
      <path
         id="path3205"
         d="M 35.405284,169.56155 35.51002,85.398455 c 0.04279,-34.384729 25.051636,-34.488848 50.196698,-34.488848 24.077012,0 48.154022,0.104119 48.133112,34.500548 -1.7e-4,0.278528 -0.003,83.821245 -0.003,83.821245"
         style="display:inline;fill:none;fill-rule:evenodd;stroke:#000000;stroke-width:25;stroke-linecap:butt;stroke-linejoin:miter;stroke-miterlimit:4;stroke-dasharray:none;stroke-opacity:1" />
    </g>
  </g>
  <g
     style="display:none"
     id="layer2">
    <g
       style="display:inline"
       id="layer8">
      <path
         style="display:inline;fill:none;fill-rule:evenodd;stroke:#000000;stroke-width:25;stroke-linecap:butt;stroke-linejoin:miter;stroke-miterlimit:4;stroke-dasharray:none;stroke-opacity:1"
         d="M 35.416599,50.090583 35.416599,0"
         id="path3222" />
    </g>
    <g
       style="display:none"
       id="layer9">
      <path
         id="path3221-6"
         d="M 84.638669,50.090583 84.638669,0"
         style="display:inline;fill:none;fill-rule:evenodd;stroke:#000000;stroke-width:25;stroke-linecap:butt;stroke-linejoin:miter;stroke-miterlimit:4;stroke-dasharray:none;stroke-opacity:1" />
    </g>
    <g
       style="display:inline"
       id="layer10">
      <path
         style="display:inline;fill:none;fill-rule:evenodd;stroke:#000000;stroke-width:25;stroke-linecap:butt;stroke-linejoin:miter;stroke-miterlimit:4;stroke-dasharray:none;stroke-opacity:1"
         d="M 133.86074,50.090583 133.86074,0"
         id="path3224" />
    </g>
    <g
       style="display:none"
       id="layer3">
      <path
         style="display:inline;fill:none;fill-rule:evenodd;stroke:#000000;stroke-width:25;stroke-linecap:butt;stroke-linejoin:miter;stroke-miterlimit:4;stroke-dasharray:none;stroke-opacity:1"
         d="M 35.405284,0.03270384 35.333243,32.719 c -0.03127,14.189095 25.228413,18.190607 50.373475,18.190607 24.077012,0 47.956332,-3.761616 47.956332,-17.825354 0,-0.278528 0.17356,-33.02814902 0.17356,-33.02814902"
         id="path3513" />
    </g>
  </g>
  <g
     style="display:none"
     id="layer11">
    <g
       style="display:none"
       id="layer12">
      <circle
         style="fill:#000000;fill-opacity:1;stroke:none;stroke-width:17.5;stroke-linecap:round;stroke-linejoin:round;stroke-miterlimit:4;stroke-dasharray:none;stroke-dashoffset:0;stroke-opacity:1"
         id="path3223"
         cx="84.638672"
         cy="84.638672"
         r="35.416599" />
    </g>
    <g
       style="display:inline"
       id="layer13">
      <path
         transform="matrix(0,-1,1,0,0,0)"
         d="m -49.222073,84.638672 a 35.416599,35.416599 0 0 1 -17.7083,30.671678 35.416599,35.416599 0 0 1 -35.416597,0 35.416599,35.416599 0 0 1 -17.7083,-30.67168 l 35.416598,2e-6 z"
         id="circle3603"
         style="fill:#000000;fill-opacity:1;stroke:none;stroke-width:17.5;stroke-linecap:round;stroke-linejoin:round;stroke-miterlimit:4;stroke-dasharray:none;stroke-dashoffset:0;stroke-opacity:1" />
      <path
         id="path3608"
         d="m 56.75,51.013726 c 0,66.138614 0,66.138614 0,66.138614 L 44.831973,96.509712"
         style="fill:none;fill-rule:evenodd;stroke:#000000;stroke-width:4;stroke-linecap:round;stroke-linejoin:miter;stroke-miterlimit:4;stroke-dasharray:none;stroke-opacity:1" />
    </g>
    <g
       style="display:none"
       id="g3629">
      <path
         style="fill:#000000;fill-opacity:1;stroke:none;stroke-width:17.5;stroke-linecap:round;stroke-linejoin:round;stroke-miterlimit:4;stroke-dasharray:none;stroke-dashoffset:0;stroke-opacity:1"
         id="path3631"
         d="m -49.222073,-84.055267 a 35.416599,35.416599 0 0 1 -17.7083,30.671675 35.416599,35.416599 0 0 1 -35.416597,-10e-7 35.416599,35.416599 0 0 1 -17.7083,-30.671676 l 35.416598,2e-6 z"
         transform="matrix(0,-1,-1,0,0,0)" />
      <path
         style="fill:none;fill-rule:evenodd;stroke:#000000;stroke-width:4;stroke-linecap:round;stroke-linejoin:miter;stroke-miterlimit:4;stroke-dasharray:none;stroke-opacity:1"
         d="m 108.81783,122.58796 c 0,-66.138617 0,-66.138617 0,-66.138617 l 11.91803,20.642628"
         id="path3633" />
    </g>
  </g>
  <g
     id="g3791">
    <g
       id="g3793"
       style="display:none">
      <circle
         r="35.416599"
         cy="84.638672"
         cx="133.86073"
         id="circle3795"
         style="fill:#000000;fill-opacity:1;stroke:none;stroke-width:17.5;stroke-linecap:round;stroke-linejoin:round;stroke-miterlimit:4;stroke-dasharray:none;stroke-dashoffset:0;stroke-opacity:1" />
    </g>
    <g
       id="g3797"
       style="display:inline">
      <path
         style="fill:#000000;fill-opacity:1;stroke:none;stroke-width:17.5;stroke-linecap:round;stroke-linejoin:round;stroke-miterlimit:4;stroke-dasharray:none;stroke-dashoffset:0;stroke-opacity:1"
         id="path3799"
         d="m -49.222073,135.06296 a 35.416599,35.416599 0 0 1 -17.7083,30.67167 35.416599,35.416599 0 0 1 -35.416597,0 35.416599,35.416599 0 0 1 -17.7083,-30.67167 l 35.416598,0 z"
         transform="matrix(0,-1,1,0,0,0)" />
      <path
         style="fill:none;fill-rule:evenodd;stroke:#000000;stroke-width:4;stroke-linecap:round;stroke-linejoin:miter;stroke-miterlimit:4;stroke-dasharray:none;stroke-opacity:1"
         d="m 109.17429,51.013726 c 0,66.138614 0,66.138614 0,66.138614 L 97.256262,96.509712"
         id="path3801" />
    </g>
    <g
       id="g3803"
       style="display:none">
      <path
         transform="matrix(0,-1,-1,0,0,0)"
         d="m -49.222073,-128.05527 a 35.416599,35.416599 0 0 1 -17.7083,30.671678 35.416599,35.416599 0 0 1 -35.416597,-1e-6 35.416599,35.416599 0 0 1 -17.7083,-30.671677 l 35.416598,0 z"
         id="path3805"
         style="fill:#000000;fill-opacity:1;stroke:none;stroke-width:17.5;stroke-linecap:round;stroke-linejoin:round;stroke-miterlimit:4;stroke-dasharray:none;stroke-dashoffset:0;stroke-opacity:1" />
      <path
         id="path3807"
         d="m 152.81783,122.58796 c 0,-66.138617 0,-66.138617 0,-66.138617 l 11.91803,20.642628"
         style="fill:none;fill-rule:evenodd;stroke:#000000;stroke-width:4;stroke-linecap:round;stroke-linejoin:miter;stroke-miterlimit:4;stroke-dasharray:none;stroke-opacity:1" />
    </g>
  </g>
</svg>
