<?xml version="1.0" encoding="UTF-8" standalone="no"?>
<svg
   xmlns:dc="http://purl.org/dc/elements/1.1/"
   xmlns:cc="http://creativecommons.org/ns#"
   xmlns:rdf="http://www.w3.org/1999/02/22-rdf-syntax-ns#"
   xmlns:svg="http://www.w3.org/2000/svg"
   xmlns="http://www.w3.org/2000/svg"
   xmlns:sodipodi="http://sodipodi.sourceforge.net/DTD/sodipodi-0.dtd"
   xmlns:inkscape="http://www.inkscape.org/namespaces/inkscape"
   enable-background="new -0.258 -0.548 123.547 123.539"
   viewBox="-0.258 -0.548 123.547 123.539"
   xml:space="preserve"
   id="svg3226"
   version="1.1"
   inkscape:version="0.91 r13725"
   sodipodi:docname="cdgval.svg"><metadata
     id="metadata3244"><rdf:RDF><cc:Work
         rdf:about=""><dc:format>image/svg+xml</dc:format><dc:type
           rdf:resource="http://purl.org/dc/dcmitype/StillImage" /><dc:title></dc:title></cc:Work></rdf:RDF></metadata><defs
     id="defs3242" /><sodipodi:namedview
     pagecolor="#ffffff"
     bordercolor="#666666"
     borderopacity="1"
     objecttolerance="10"
     gridtolerance="10"
     guidetolerance="10"
     inkscape:pageopacity="0"
     inkscape:pageshadow="2"
     inkscape:window-width="1920"
     inkscape:window-height="1016"
     id="namedview3240"
     showgrid="false"
     inkscape:zoom="4.2423745"
     inkscape:cx="77.413214"
     inkscape:cy="57.53571"
     inkscape:window-x="0"
     inkscape:window-y="27"
     inkscape:window-maximized="1"
     inkscape:current-layer="svg3226" /><path
     d="m 108.5195,122.9835 c 8.156,0 14.773,-6.586 14.773,-14.742 l 0,-94.015999 c 0,-8.1560002 -6.617,-14.76600025 -14.773,-14.76600025 l -94.016001,0 c -8.1480005,0 -14.76500045,6.61000005 -14.76500045,14.76600025 l 0,94.015999 c 0,8.156 6.61699995,14.742 14.76600045,14.742 l 94.015001,0 z"
     id="path3228"
     inkscape:connector-curvature="0" /><path
     d="m 14.503499,1.9595008 c -6.7580005,0 -12.2660005,5.5 -12.2660005,12.2660002 l 0,94.015999 c 0,6.758 5.508,12.25 12.2660005,12.25 l 94.016001,0 c 6.766,0 12.281,-5.492 12.281,-12.25 l 0,-94.015999 c 0,-6.7660002 -5.516,-12.2660002 -12.281,-12.2660002 l -94.016001,0 z"
     id="path3230"
     inkscape:connector-curvature="0"
     style="fill:#ffcd00;fill-opacity:1" /><path
     d="m 40.45634,68.781902 c 3.078,0 5.594,-2.516 5.594,-5.616997 0,-3.094 -2.516,-5.586 -5.594,-5.586 -3.102,0 -5.617,2.492 -5.617,5.586 0,3.101997 2.516,5.616997 5.617,5.616997 z"
     id="path3234"
     inkscape:connector-curvature="0"
     style="fill:#777779;fill-opacity:1" /><path
     d="m 86.381977,11.452 -24.992,0 c -3.492,10e-4 0,0 -3.492,10e-4 l -25.219,0 c -1.977,0 -3.586,1.609 -3.586,3.586 l 0,37.617 c 0,1.977 1.609,3.594 3.586,3.594 l 53.703,0 c 1.977,0 3.594,-1.617 3.594,-3.594 l 0,-37.618 c 0,-1.976 -1.618,-3.586 -3.594,-3.586 z m -38.125,20.43 c 0,1.07 -0.859,1.953 -1.93,1.953 l -11.82,0 c -1.07,0 -1.953,-0.883 -1.953,-1.953 l 0,-11.789 c 0,-1.07 0.883,-1.953 1.953,-1.953 l 11.82,0 c 1.07,0 1.93,0.883 1.93,1.953 z m 19.211,-0.148 c 0,1.078 -0.875,1.93 -1.953,1.93 l -11.789,0 c -1.078,0 -1.953,-0.852 -1.953,-1.93 l 0,-11.813 c 0,-1.07 0.875,-1.922 1.953,-1.922 l 11.789,0 c 1.078,0 1.953,0.852 1.953,1.922 z m 19.062,0 c 0,1.078 -0.852,1.93 -1.93,1.93 l -11.812,0 c -1.07,0 -1.953,-0.852 -1.953,-1.93 l 0,-11.813 c 0,-1.07 0.883,-1.922 1.953,-1.922 l 11.812,0 c 1.078,0 1.93,0.852 1.93,1.922 z"
     id="path3236"
     inkscape:connector-curvature="0"
     sodipodi:nodetypes="sccsssssssssssssssssssssssssssssssssss"
     style="fill:#777779;fill-opacity:1" /><path
     d="m 78.570846,68.812912 c 3.094,0 5.609,-2.51601 5.609,-5.617007 0,-3.101 -2.515,-5.617 -5.609,-5.617 -3.078,0 -5.594,2.516 -5.594,5.617 0,3.100997 2.516,5.617007 5.594,5.617007 z"
     id="path3238"
     inkscape:connector-curvature="0"
     style="fill:#777779;fill-opacity:1" /><path
     style="fill:#777779;fill-rule:evenodd;stroke:#777779;stroke-width:3;stroke-linecap:round;stroke-linejoin:miter;stroke-miterlimit:4;stroke-dasharray:none;stroke-opacity:1;fill-opacity:1"
     d="m 9.7756105,71.290422 c 103.4797795,0 103.4797795,0 103.4797795,0"
     id="path3294"
     inkscape:connector-curvature="0" /><g
     transform="matrix(0.31987929,0,0,0.31987929,-11.279906,76.04879)"
     id="g3668"><path
       style="fill:#777779"
       inkscape:connector-curvature="0"
       id="path3604"
       d="m 100,100 m -40.51,-13.23 0,-13.69 40.56,-40.62 0,24.45 -40.56,29.86 m 81.1,0 0,-13.69 -40.54,-40.62 0,24.45 40.54,29.86" /><path
       style="fill:#777779"
       inkscape:connector-curvature="0"
       id="path3606"
       d="m 100,100 m -11.04,-5.35 0,-6.92 11.09,-11.36 0,13.67 -11.09,4.61 m 22.17,0 0,-6.92 -11.08,-11.36 0,13.67 11.08,4.61" /><path
       style="fill:#777779"
       inkscape:connector-curvature="0"
       id="path3608"
       d="m 100,100 m 0.07,-10 c 2.84,0 4.98,-2.31 4.98,-5.21 l 0,-71.04 c 0,-2.71 -2.14,-5 -4.98,-5 -2.82,0 -5.13,2.29 -5.13,5 l 0,71.04 c 0,2.89 2.31,5.21 5.13,5.21" /></g><g
     style="font-style:normal;font-weight:normal;font-size:20px;line-height:100%;font-family:sans-serif;letter-spacing:0px;word-spacing:0px;fill:#000000;fill-opacity:1;stroke:none;stroke-width:1px;stroke-linecap:butt;stroke-linejoin:miter;stroke-opacity:1"
     id="text3697"><path
       d="m 45.372444,106.31937 q -1.46,0 -2.66,-0.48 -1.2,-0.48 -2.06,-1.4 -0.86,-0.92 -1.34,-2.26 -0.46,-1.36 -0.46,-3.099999 0,-1.74 0.52,-3.08 0.54,-1.36 1.44,-2.28 0.9,-0.92 2.1,-1.4 1.2,-0.48 2.56,-0.48 0.86,0 1.54,0.12 0.7,0.12 1.2,0.28 0.52,0.16 0.84,0.32 0.32,0.16 0.44,0.24 l -0.56,1.6 q -0.18,-0.12 -0.52,-0.26 -0.34,-0.14 -0.78,-0.28 -0.42,-0.14 -0.94,-0.22 -0.5,-0.1 -1.02,-0.1 -1.1,0 -1.98,0.38 -0.88,0.38 -1.5,1.1 -0.62,0.72 -0.96,1.76 -0.32,1.02 -0.32,2.3 0,1.239999 0.28,2.259999 0.3,1.02 0.88,1.76 0.58,0.72 1.44,1.12 0.88,0.4 2.04,0.4 1.34,0 2.22,-0.28 0.88,-0.28 1.32,-0.5 l 0.5,1.6 q -0.14,0.1 -0.5,0.26 -0.36,0.14 -0.9,0.28 -0.54,0.14 -1.26,0.24 -0.72,0.1 -1.56,0.1 z"
       style="font-style:normal;font-variant:normal;font-weight:normal;font-stretch:normal;font-size:20px;font-family:Ubuntu;-inkscape-font-specification:Ubuntu;fill:#777779;fill-opacity:1"
       id="path3721" /><path
       d="m 63.175256,99.079371 q 0,1.799999 -0.56,3.139999 -0.56,1.32 -1.58,2.2 -1.02,0.86 -2.44,1.3 -1.42,0.42 -3.12,0.42 -0.84,0 -1.86,-0.08 -1,-0.06 -1.82,-0.26 l 0,-13.439999 q 0.82,-0.2 1.82,-0.26 1.02,-0.08 1.86,-0.08 1.7,0 3.12,0.44 1.42,0.42 2.44,1.3 1.02,0.86 1.58,2.2 0.56,1.32 0.56,3.12 z m -7.54,5.359999 q 2.76,0 4.12,-1.4 1.36,-1.42 1.36,-3.959999 0,-2.54 -1.36,-3.94 -1.36,-1.42 -4.12,-1.42 -0.82,0 -1.28,0.02 -0.44,0.02 -0.62,0.04 l 0,10.599999 q 0.18,0.02 0.62,0.04 0.46,0.02 1.28,0.02 z"
       style="font-style:normal;font-variant:normal;font-weight:normal;font-stretch:normal;font-size:20px;font-family:Ubuntu;-inkscape-font-specification:Ubuntu;fill:#777779;fill-opacity:1"
       id="path3723" /><path
       d="m 74.513069,99.199371 1.94,0 0,6.479999 q -0.24,0.08 -0.7,0.18 -0.44,0.1 -1.04,0.2 -0.58,0.1 -1.28,0.16 -0.7,0.08 -1.42,0.08 -1.46,0 -2.66,-0.48 -1.2,-0.48 -2.06,-1.4 -0.86,-0.92 -1.34,-2.26 -0.46,-1.34 -0.46,-3.079999 0,-1.74 0.52,-3.08 0.54,-1.36 1.44,-2.28 0.9,-0.92 2.1,-1.4 1.22,-0.48 2.6,-0.48 0.94,0 1.66,0.12 0.74,0.12 1.26,0.28 0.52,0.16 0.84,0.32 0.34,0.16 0.46,0.24 l -0.62,1.62 q -0.58,-0.38 -1.54,-0.62 -0.96,-0.26 -1.96,-0.26 -1.06,0 -1.94,0.38 -0.86,0.38 -1.48,1.1 -0.6,0.72 -0.94,1.76 -0.34,1.02 -0.34,2.3 0,1.239999 0.28,2.259999 0.3,1.02 0.88,1.76 0.6,0.72 1.46,1.12 0.88,0.4 2.06,0.4 0.84,0 1.42,-0.08 0.6,-0.1 0.86,-0.18 l 0,-5.159999 z"
       style="font-style:normal;font-variant:normal;font-weight:normal;font-stretch:normal;font-size:20px;font-family:Ubuntu;-inkscape-font-specification:Ubuntu;fill:#777779;fill-opacity:1"
       id="path3725" /><path
       d="m 87.139006,95.619371 q -0.78,2.92 -1.84,5.599999 -1.04,2.68 -2.02,4.8 l -1.68,0 q -0.98,-2.12 -2.04,-4.8 -1.04,-2.679999 -1.82,-5.599999 l 2,0 q 0.24,0.98 0.56,2.1 0.34,1.1 0.7,2.2 0.38,1.079999 0.76,2.099999 0.38,1.02 0.72,1.82 0.34,-0.8 0.72,-1.82 0.38,-1.02 0.74,-2.099999 0.38,-1.1 0.7,-2.2 0.34,-1.12 0.58,-2.1 l 1.92,0 z"
       style="font-style:normal;font-variant:normal;font-weight:normal;font-stretch:normal;font-size:20px;font-family:Ubuntu;-inkscape-font-specification:Ubuntu;fill:#777779;fill-opacity:1"
       id="path3727" /><path
       d="m 92.578069,104.67937 q 0.66,0 1.16,-0.02 0.52,-0.04 0.86,-0.12 l 0,-3.1 q -0.2,-0.1 -0.66,-0.16 -0.44,-0.08 -1.08,-0.08 -0.42,0 -0.9,0.06 -0.46,0.06 -0.86,0.26 -0.38,0.18 -0.64,0.52 -0.26,0.32 -0.26,0.86 0,1 0.64,1.4 0.64,0.38 1.74,0.38 z m -0.16,-9.319999 q 1.12,0 1.88,0.3 0.78,0.28 1.24,0.82 0.48,0.52 0.68,1.26 0.2,0.72 0.2,1.6 l 0,6.499999 q -0.24,0.04 -0.68,0.12 -0.42,0.06 -0.96,0.12 -0.54,0.06 -1.18,0.1 -0.62,0.06 -1.24,0.06 -0.88,0 -1.62,-0.18 -0.74,-0.18 -1.28,-0.56 -0.54,-0.4 -0.84,-1.04 -0.3,-0.64 -0.3,-1.54 0,-0.86 0.34,-1.48 0.36,-0.62 0.96,-1 0.6,-0.38 1.4,-0.559999 0.8,-0.18 1.68,-0.18 0.28,0 0.58,0.04 0.3,0.02 0.56,0.08 0.28,0.04 0.48,0.08 0.2,0.04 0.28,0.06 l 0,-0.52 q 0,-0.46 -0.1,-0.9 -0.1,-0.46 -0.36,-0.8 -0.26,-0.36 -0.72,-0.56 -0.44,-0.22 -1.16,-0.22 -0.92,0 -1.62,0.14 -0.68,0.12 -1.02,0.26 l -0.22,-1.54 q 0.36,-0.16 1.2,-0.3 0.84,-0.16 1.82,-0.16 z"
       style="font-style:normal;font-variant:normal;font-weight:normal;font-stretch:normal;font-size:20px;font-family:Ubuntu;-inkscape-font-specification:Ubuntu;fill:#777779;fill-opacity:1"
       id="path3729" /><path
       d="m 102.60776,106.21937 q -1.72,-0.04 -2.44,-0.74 -0.720004,-0.7 -0.720004,-2.18 l 0,-12.479999 1.860004,-0.32 0,12.499999 q 0,0.46 0.08,0.76 0.08,0.3 0.26,0.48 0.18,0.18 0.48,0.28 0.3,0.08 0.74,0.14 l -0.26,1.56 z"
       style="font-style:normal;font-variant:normal;font-weight:normal;font-stretch:normal;font-size:20px;font-family:Ubuntu;-inkscape-font-specification:Ubuntu;fill:#777779;fill-opacity:1"
       id="path3731" /></g></svg>