<?xml version="1.0" encoding="UTF-8" standalone="no"?>
<svg
   xmlns:dc="http://purl.org/dc/elements/1.1/"
   xmlns:cc="http://creativecommons.org/ns#"
   xmlns:rdf="http://www.w3.org/1999/02/22-rdf-syntax-ns#"
   xmlns:svg="http://www.w3.org/2000/svg"
   xmlns="http://www.w3.org/2000/svg"
   xmlns:sodipodi="http://sodipodi.sourceforge.net/DTD/sodipodi-0.dtd"
   xmlns:inkscape="http://www.inkscape.org/namespaces/inkscape"
   enable-background="new -0.258 -0.548 123.547 123.539"
   viewBox="-0.258 -0.548 123.547 123.539"
   xml:space="preserve"
   id="svg3226"
   version="1.1"
   inkscape:version="0.91 r13725"
   sodipodi:docname="navette.svg"><metadata
     id="metadata3244"><rdf:RDF><cc:Work
         rdf:about=""><dc:format>image/svg+xml</dc:format><dc:type
           rdf:resource="http://purl.org/dc/dcmitype/StillImage" /><dc:title></dc:title></cc:Work></rdf:RDF></metadata><defs
     id="defs3242" /><sodipodi:namedview
     pagecolor="#ffffff"
     bordercolor="#666666"
     borderopacity="1"
     objecttolerance="10"
     gridtolerance="10"
     guidetolerance="10"
     inkscape:pageopacity="0"
     inkscape:pageshadow="2"
     inkscape:window-width="1920"
     inkscape:window-height="1016"
     id="namedview3240"
     showgrid="false"
     inkscape:zoom="4.7106419"
     inkscape:cx="35.951095"
     inkscape:cy="61.910035"
     inkscape:window-x="0"
     inkscape:window-y="27"
     inkscape:window-maximized="1"
     inkscape:current-layer="svg3226" /><path
     d="m 108.5195,122.9835 c 8.156,0 14.773,-6.586 14.773,-14.742 l 0,-94.015999 c 0,-8.1560002 -6.617,-14.76600025 -14.773,-14.76600025 l -94.016001,0 c -8.1480005,0 -14.76500045,6.61000005 -14.76500045,14.76600025 l 0,94.015999 c 0,8.156 6.61699995,14.742 14.76600045,14.742 l 94.015001,0 z"
     id="path3228"
     inkscape:connector-curvature="0" /><path
     d="m 14.503499,1.9595008 c -6.7580005,0 -12.2660005,5.5 -12.2660005,12.2660002 l 0,94.015999 c 0,6.758 5.508,12.25 12.2660005,12.25 l 94.016001,0 c 6.766,0 12.281,-5.492 12.281,-12.25 l 0,-94.015999 c 0,-6.7660002 -5.516,-12.2660002 -12.281,-12.2660002 l -94.016001,0 z"
     id="path3230"
     inkscape:connector-curvature="0"
     style="fill:#ffcd00;fill-opacity:1" /><g
     id="g3297"
     transform="translate(-1.7012539e-6,19.100215)"><path
       style="fill:#777779;fill-opacity:1"
       inkscape:connector-curvature="0"
       id="path3234"
       d="m 40.45634,68.781902 c 3.078,0 5.594,-2.516 5.594,-5.616997 0,-3.094 -2.516,-5.586 -5.594,-5.586 -3.102,0 -5.617,2.492 -5.617,5.586 0,3.101997 2.516,5.616997 5.617,5.616997 z" /><path
       style="fill:#777779;fill-opacity:1"
       sodipodi:nodetypes="sccsssssssssssssssssssssssssssssssssss"
       inkscape:connector-curvature="0"
       id="path3236"
       d="m 86.381977,11.452 -24.992,0 c -3.492,10e-4 0,0 -3.492,10e-4 l -25.219,0 c -1.977,0 -3.586,1.609 -3.586,3.586 l 0,37.617 c 0,1.977 1.609,3.594 3.586,3.594 l 53.703,0 c 1.977,0 3.594,-1.617 3.594,-3.594 l 0,-37.618 c 0,-1.976 -1.618,-3.586 -3.594,-3.586 z m -38.125,20.43 c 0,1.07 -0.859,1.953 -1.93,1.953 l -11.82,0 c -1.07,0 -1.953,-0.883 -1.953,-1.953 l 0,-11.789 c 0,-1.07 0.883,-1.953 1.953,-1.953 l 11.82,0 c 1.07,0 1.93,0.883 1.93,1.953 z m 19.211,-0.148 c 0,1.078 -0.875,1.93 -1.953,1.93 l -11.789,0 c -1.078,0 -1.953,-0.852 -1.953,-1.93 l 0,-11.813 c 0,-1.07 0.875,-1.922 1.953,-1.922 l 11.789,0 c 1.078,0 1.953,0.852 1.953,1.922 z m 19.062,0 c 0,1.078 -0.852,1.93 -1.93,1.93 l -11.812,0 c -1.07,0 -1.953,-0.852 -1.953,-1.93 l 0,-11.813 c 0,-1.07 0.883,-1.922 1.953,-1.922 l 11.812,0 c 1.078,0 1.93,0.852 1.93,1.922 z" /><path
       style="fill:#777779;fill-opacity:1"
       inkscape:connector-curvature="0"
       id="path3238"
       d="m 78.570846,68.812912 c 3.094,0 5.609,-2.51601 5.609,-5.617007 0,-3.101 -2.515,-5.617 -5.609,-5.617 -3.078,0 -5.594,2.516 -5.594,5.617 0,3.100997 2.516,5.617007 5.594,5.617007 z" /><path
       inkscape:connector-curvature="0"
       id="path3294"
       d="m 9.7756105,71.290422 c 103.4797795,0 103.4797795,0 103.4797795,0"
       style="fill:#777779;fill-opacity:1;fill-rule:evenodd;stroke:#777779;stroke-width:3;stroke-linecap:round;stroke-linejoin:miter;stroke-miterlimit:4;stroke-dasharray:none;stroke-opacity:1" /></g></svg>