<?xml version="1.0" encoding="UTF-8" standalone="no"?>
<svg
   xmlns:dc="http://purl.org/dc/elements/1.1/"
   xmlns:cc="http://creativecommons.org/ns#"
   xmlns:rdf="http://www.w3.org/1999/02/22-rdf-syntax-ns#"
   xmlns:svg="http://www.w3.org/2000/svg"
   xmlns="http://www.w3.org/2000/svg"
   version="1.1"
   id="svg2"
   viewBox="0 0 169.27734 169.27734"
   width="47.773827mm"
   height="47.773827mm">
  <defs
     id="defs8" />
  <metadata
     id="metadata4">
    <rdf:RDF>
      <cc:Work
         rdf:about="">
        <dc:format>image/svg+xml</dc:format>
        <dc:type
           rdf:resource="http://purl.org/dc/dcmitype/StillImage" />
        <dc:title></dc:title>
      </cc:Work>
    </rdf:RDF>
  </metadata>
  <g
     style="display:inline"
     id="layer1">
    <g
       style="display:none"
       id="layer5">
      <path
         style="display:inline;fill:none;fill-rule:evenodd;stroke:#000000;stroke-width:25;stroke-linecap:butt;stroke-linejoin:miter;stroke-miterlimit:4;stroke-dasharray:none;stroke-opacity:1"
         d="m 35.416599,49.67663 0,119.60071"
         id="path3218" />
    </g>
    <g
       style="display:none"
       id="layer6">
      <path
         id="path3221-3"
         d="m 84.638669,49.67663 0,119.60071"
         style="display:inline;fill:none;fill-rule:evenodd;stroke:#000000;stroke-width:25;stroke-linecap:butt;stroke-linejoin:miter;stroke-miterlimit:4;stroke-dasharray:none;stroke-opacity:1" />
    </g>
    <g
       style="display:inline"
       id="layer7">
      <path
         id="path3220"
         d="m 133.86074,49.67663 0,119.60071"
         style="display:inline;fill:none;fill-rule:evenodd;stroke:#000000;stroke-width:25;stroke-linecap:butt;stroke-linejoin:miter;stroke-miterlimit:4;stroke-dasharray:none;stroke-opacity:1" />
    </g>
    <g
       style="display:none"
       id="layer4">
      <path
         id="path3205"
         d="M 35.405284,169.56155 35.51002,85.398455 c 0.04279,-34.384729 25.051636,-34.488848 50.196698,-34.488848 24.077012,0 48.154022,0.104119 48.133112,34.500548 -1.7e-4,0.278528 -0.003,83.821245 -0.003,83.821245"
         style="display:inline;fill:none;fill-rule:evenodd;stroke:#000000;stroke-width:25;stroke-linecap:butt;stroke-linejoin:miter;stroke-miterlimit:4;stroke-dasharray:none;stroke-opacity:1" />
    </g>
    <g
       style="display:none"
       id="g3456">
      <path
         id="path3246"
         d="m 84.639103,63.353501 c 0,0 0.02101,8.962498 0.02101,12.432585 0,17.894666 13.611141,19.025594 25.474307,19.025594 11.86316,0 23.77431,0.645814 23.77431,29.38401 0,19.21414 -0.048,45.20644 -0.048,45.20644"
         style="fill:none;fill-rule:evenodd;stroke:#000000;stroke-width:25;stroke-linecap:butt;stroke-linejoin:miter;stroke-miterlimit:4;stroke-dasharray:none;stroke-opacity:1" />
    </g>
    <g
       id="g3340"
       style="display:none">
      <path
         style="fill:none;fill-rule:evenodd;stroke:#000000;stroke-width:25;stroke-linecap:butt;stroke-linejoin:miter;stroke-miterlimit:4;stroke-dasharray:none;stroke-opacity:1"
         d="m 84.686212,63.353501 c 0,0 -0.021,8.962498 -0.021,12.432585 0,17.894666 -13.61114,19.025594 -25.4743,19.025594 -11.863163,0 -23.774313,0.645814 -23.774313,29.38401 0,19.21414 0.048,45.20644 0.048,45.20644"
         id="path3342" />
    </g>
  </g>
  <g
     style="display:inline"
     id="layer2">
    <g
       style="display:inline"
       id="layer8">
      <path
         style="display:inline;fill:none;fill-rule:evenodd;stroke:#000000;stroke-width:25;stroke-linecap:butt;stroke-linejoin:miter;stroke-miterlimit:4;stroke-dasharray:none;stroke-opacity:1"
         d="M 35.416599,50.090583 35.416599,0"
         id="path3222" />
    </g>
    <g
       style="display:none"
       id="layer9">
      <path
         id="path3221-6"
         d="m 84.638669,63.341856 0,-27.896822 0,-35.445034"
         style="display:inline;fill:none;fill-rule:evenodd;stroke:#000000;stroke-width:25;stroke-linecap:butt;stroke-linejoin:miter;stroke-miterlimit:4;stroke-dasharray:none;stroke-opacity:1" />
    </g>
    <g
       id="g3331"
       style="display:none">
      <path
         style="display:inline;fill:none;fill-rule:evenodd;stroke:#000000;stroke-width:5;stroke-linecap:butt;stroke-linejoin:miter;stroke-miterlimit:4;stroke-dasharray:none;stroke-opacity:1"
         d="m 84.638669,63.341856 0,-27.896822 0,-35.445034"
         id="path3333" />
      <rect
         ry="0"
         rx="0"
         y="0.5"
         x="78.273987"
         height="12.729363"
         width="12.729363"
         id="rect3335"
         style="fill:#000000;fill-opacity:1;stroke:#000000;stroke-width:1;stroke-linecap:round;stroke-linejoin:miter;stroke-miterlimit:4;stroke-dasharray:none;stroke-dashoffset:0;stroke-opacity:1" />
    </g>
    <g
       style="display:inline"
       id="layer10">
      <path
         style="display:inline;fill:none;fill-rule:evenodd;stroke:#000000;stroke-width:25;stroke-linecap:butt;stroke-linejoin:miter;stroke-miterlimit:4;stroke-dasharray:none;stroke-opacity:1"
         d="M 133.86074,50.090583 133.86074,0"
         id="path3224" />
    </g>
    <g
       style="display:none"
       id="layer3">
      <path
         style="display:inline;fill:none;fill-rule:evenodd;stroke:#000000;stroke-width:25;stroke-linecap:butt;stroke-linejoin:miter;stroke-miterlimit:4;stroke-dasharray:none;stroke-opacity:1"
         d="M 35.405284,0.03270384 35.333243,32.719 c -0.04032,18.294726 25.228413,18.190607 50.373475,18.190607 24.077012,0 47.956332,0.104119 47.956332,-17.825354 0,-0.278528 0.17356,-33.02814902 0.17356,-33.02814902"
         id="path3513" />
    </g>
    <g
       style="display:none"
       id="g3244">
      <path
         id="path3247"
         d="m 84.591127,57.39593 c 0,0 0.021,-8.9625 0.021,-12.43259 0,-17.89467 13.61114,-19.02559 25.474303,-19.02559 11.86316,0 23.77431,-0.64582 23.77431,-29.38401 0,-19.214144 -0.048,-25.258751 -0.048,-25.258751"
         style="fill:none;fill-rule:evenodd;stroke:#000000;stroke-width:25;stroke-linecap:butt;stroke-linejoin:miter;stroke-miterlimit:4;stroke-dasharray:none;stroke-opacity:1" />
    </g>
    <g
       id="g3356"
       style="display:inline">
      <rect
         style="display:inline;fill:#000000;fill-opacity:1;stroke:#000000;stroke-width:1;stroke-linecap:round;stroke-linejoin:miter;stroke-miterlimit:4;stroke-dasharray:none;stroke-dashoffset:0;stroke-opacity:1"
         id="rect3276"
         width="12.729363"
         height="12.729363"
         x="78.273987"
         y="0.5"
         rx="0"
         ry="0" />
      <path
         style="fill:none;fill-rule:evenodd;stroke:#000000;stroke-width:5;stroke-linecap:butt;stroke-linejoin:miter;stroke-miterlimit:4;stroke-dasharray:none;stroke-opacity:1"
         d="m 35.416565,49.468001 c 0,0 0.021,-1.034571 0.021,-4.504661 0,-17.89467 13.61114,-19.02559 25.474303,-19.02559 11.86316,0 23.77431,-0.64582 23.77431,-29.38401 0,-19.214144 -0.048,-25.258751 -0.048,-25.258751"
         id="path3358" />
    </g>
    <g
       id="g3308"
       style="display:none">
      <path
         style="fill:none;fill-rule:evenodd;stroke:#000000;stroke-width:25;stroke-linecap:butt;stroke-linejoin:miter;stroke-miterlimit:4;stroke-dasharray:none;stroke-opacity:1"
         d="m 84.686212,57.39593 c 0,0 -0.021,-8.9625 -0.021,-12.43259 0,-17.89467 -13.61114,-19.02559 -25.4743,-19.02559 -11.863163,0 -23.774313,-0.64582 -23.774313,-29.38401 0,-19.214144 0.048,-25.258751 0.048,-25.258751"
         id="path3310" />
    </g>
  </g>
  <g
     style="display:none"
     id="layer11">
    <g
       style="display:none"
       id="layer12">
      <circle
         style="fill:#000000;fill-opacity:1;stroke:none;stroke-width:17.5;stroke-linecap:round;stroke-linejoin:round;stroke-miterlimit:4;stroke-dasharray:none;stroke-dashoffset:0;stroke-opacity:1"
         id="path3223"
         cx="84.638672"
         cy="84.638672"
         r="35.416599" />
    </g>
    <g
       style="display:inline"
       id="layer13">
      <path
         transform="matrix(0,-1,1,0,0,0)"
         d="m -49.222073,84.638672 a 35.416599,35.416599 0 0 1 -17.7083,30.671678 35.416599,35.416599 0 0 1 -35.416597,0 35.416599,35.416599 0 0 1 -17.7083,-30.67168 l 35.416598,2e-6 z"
         id="circle3603"
         style="fill:#000000;fill-opacity:1;stroke:none;stroke-width:17.5;stroke-linecap:round;stroke-linejoin:round;stroke-miterlimit:4;stroke-dasharray:none;stroke-dashoffset:0;stroke-opacity:1" />
      <path
         id="path3608"
         d="m 56.75,51.013726 c 0,66.138614 0,66.138614 0,66.138614 L 44.831973,96.509712"
         style="fill:none;fill-rule:evenodd;stroke:#000000;stroke-width:4;stroke-linecap:round;stroke-linejoin:miter;stroke-miterlimit:4;stroke-dasharray:none;stroke-opacity:1" />
    </g>
    <g
       style="display:none"
       id="g3629">
      <path
         style="fill:#000000;fill-opacity:1;stroke:none;stroke-width:17.5;stroke-linecap:round;stroke-linejoin:round;stroke-miterlimit:4;stroke-dasharray:none;stroke-dashoffset:0;stroke-opacity:1"
         id="path3631"
         d="m -49.222073,-84.055267 a 35.416599,35.416599 0 0 1 -17.7083,30.671675 35.416599,35.416599 0 0 1 -35.416597,-10e-7 35.416599,35.416599 0 0 1 -17.7083,-30.671676 l 35.416598,2e-6 z"
         transform="matrix(0,-1,-1,0,0,0)" />
      <path
         style="fill:none;fill-rule:evenodd;stroke:#000000;stroke-width:4;stroke-linecap:round;stroke-linejoin:miter;stroke-miterlimit:4;stroke-dasharray:none;stroke-opacity:1"
         d="m 108.81783,122.58796 c 0,-66.138617 0,-66.138617 0,-66.138617 l 11.91803,20.642628"
         id="path3633" />
    </g>
  </g>
  <g
     id="g3872"
     style="display:none">
    <g
       id="g3874"
       style="display:none">
      <circle
         r="35.416599"
         cy="84.638672"
         cx="36.638672"
         id="circle3876"
         style="fill:#000000;fill-opacity:1;stroke:none;stroke-width:17.5;stroke-linecap:round;stroke-linejoin:round;stroke-miterlimit:4;stroke-dasharray:none;stroke-dashoffset:0;stroke-opacity:1" />
    </g>
    <g
       id="g3878"
       style="display:none">
      <path
         style="fill:#000000;fill-opacity:1;stroke:none;stroke-width:17.5;stroke-linecap:round;stroke-linejoin:round;stroke-miterlimit:4;stroke-dasharray:none;stroke-dashoffset:0;stroke-opacity:1"
         id="path3880"
         d="m -49.222073,36.638672 a 35.416599,35.416599 0 0 1 -17.7083,30.671675 35.416599,35.416599 0 0 1 -35.416597,-10e-7 35.416599,35.416599 0 0 1 -17.7083,-30.671676 l 35.416598,2e-6 z"
         transform="matrix(0,-1,1,0,0,0)" />
      <path
         style="fill:none;fill-rule:evenodd;stroke:#000000;stroke-width:4;stroke-linecap:round;stroke-linejoin:miter;stroke-miterlimit:4;stroke-dasharray:none;stroke-opacity:1"
         d="m 16.75,51.013726 c 0,66.138614 0,66.138614 0,66.138614 L 4.831973,96.509712"
         id="path3882" />
    </g>
    <g
       id="g3884"
       style="display:none">
      <path
         transform="matrix(0,-1,-1,0,0,0)"
         d="m -49.222073,-36.055267 a 35.416599,35.416599 0 0 1 -17.7083,30.6716746 35.416599,35.416599 0 0 1 -35.416597,-8e-7 35.416599,35.416599 0 0 1 -17.7083,-30.6716758 l 35.416598,2e-6 z"
         id="path3886"
         style="fill:#000000;fill-opacity:1;stroke:none;stroke-width:17.5;stroke-linecap:round;stroke-linejoin:round;stroke-miterlimit:4;stroke-dasharray:none;stroke-dashoffset:0;stroke-opacity:1" />
      <path
         id="path3888"
         d="m 60.81783,122.58796 c 0,-66.138617 0,-66.138617 0,-66.138617 l 11.91803,20.642628"
         style="fill:none;fill-rule:evenodd;stroke:#000000;stroke-width:4;stroke-linecap:round;stroke-linejoin:miter;stroke-miterlimit:4;stroke-dasharray:none;stroke-opacity:1" />
    </g>
  </g>
  <g
     style="display:none"
     id="g3791">
    <g
       id="g3793"
       style="display:none">
      <circle
         r="35.416599"
         cy="84.638672"
         cx="133.86073"
         id="circle3795"
         style="fill:#000000;fill-opacity:1;stroke:none;stroke-width:17.5;stroke-linecap:round;stroke-linejoin:round;stroke-miterlimit:4;stroke-dasharray:none;stroke-dashoffset:0;stroke-opacity:1" />
    </g>
    <g
       id="g3797"
       style="display:none">
      <path
         style="fill:#000000;fill-opacity:1;stroke:none;stroke-width:17.5;stroke-linecap:round;stroke-linejoin:round;stroke-miterlimit:4;stroke-dasharray:none;stroke-dashoffset:0;stroke-opacity:1"
         id="path3799"
         d="m -49.222073,135.06296 a 35.416599,35.416599 0 0 1 -17.7083,30.67167 35.416599,35.416599 0 0 1 -35.416597,0 35.416599,35.416599 0 0 1 -17.7083,-30.67167 l 35.416598,0 z"
         transform="matrix(0,-1,1,0,0,0)" />
      <path
         style="fill:none;fill-rule:evenodd;stroke:#000000;stroke-width:4;stroke-linecap:round;stroke-linejoin:miter;stroke-miterlimit:4;stroke-dasharray:none;stroke-opacity:1"
         d="m 109.17429,51.013726 c 0,66.138614 0,66.138614 0,66.138614 L 97.256262,96.509712"
         id="path3801" />
    </g>
    <g
       id="g3803"
       style="display:none">
      <path
         transform="matrix(0,-1,-1,0,0,0)"
         d="m -49.222073,-128.05527 a 35.416599,35.416599 0 0 1 -17.7083,30.671678 35.416599,35.416599 0 0 1 -35.416597,-1e-6 35.416599,35.416599 0 0 1 -17.7083,-30.671677 l 35.416598,0 z"
         id="path3805"
         style="fill:#000000;fill-opacity:1;stroke:none;stroke-width:17.5;stroke-linecap:round;stroke-linejoin:round;stroke-miterlimit:4;stroke-dasharray:none;stroke-dashoffset:0;stroke-opacity:1" />
      <path
         id="path3807"
         d="m 152.81783,122.58796 c 0,-66.138617 0,-66.138617 0,-66.138617 l 11.91803,20.642628"
         style="fill:none;fill-rule:evenodd;stroke:#000000;stroke-width:4;stroke-linecap:round;stroke-linejoin:miter;stroke-miterlimit:4;stroke-dasharray:none;stroke-opacity:1" />
    </g>
  </g>
</svg>
